<svg width="160" height="160" fill="none" xmlns="http://www.w3.org/2000/svg"><path d="M160 80c0 44.183-35.817 80-80 80S0 124.183 0 80 35.817 0 80 0s80 35.817 80 80z" fill="#121212"/><path d="M136.852 83.043c-.13 1.865 1.16 3.023 3.045 3.217l-3.18.17-.063.9 4.342.302.267-3.829-1.189-.083-.168 2.415c-1.143-.38-1.863-1.06-1.764-2.474.114-1.651 1.372-2.381 3.149-2.258 1.74.121 2.91 1.007 2.788 2.76-.094 1.35-.975 2.094-2.069 2.27l.791 1.287c1.554-.47 2.495-1.713 2.618-3.477.181-2.603-1.558-4.17-4.023-4.341-2.666-.186-4.395.99-4.544 3.141zm-2.133 13.272l1.217.305 1.101-4.392 2.336.586-.912 3.638 1.217.305.912-3.638 2.166.543-1.102 4.392 1.217.305 1.446-5.767-8.152-2.044-1.446 5.767zm-2.236 6.047l6.585 2.785-1.006 2.38 1.155.488 2.56-6.053-1.155-.489-1.002 2.369-6.585-2.786-.552 1.306zm-5.878 10.527l6.85 4.869.821-1.155-6.85-4.869-.821 1.155zm-2.937 3.882l3.412 3.127 1.196.96-1.395-.241-6.018-.785-.882.962 6.196 5.678.958-1.045-3.403-3.119-1.234-1.011 1.53.279 5.903.799.89-.971-6.196-5.678-.957 1.045zm-13.027 11.351l3.86 6.018-2.175 1.395.677 1.056 5.533-3.549-.678-1.056-2.164 1.389-3.86-6.019-1.193.766zm-7.87 4.073c-2.257.974-3.05 3.38-2.085 5.614.96 2.222 3.254 3.295 5.511 2.32 2.268-.979 3.049-3.38 2.09-5.602-.965-2.234-3.248-3.312-5.516-2.332zm.525 1.248c1.613-.696 2.929.075 3.62 1.676.686 1.589.349 3.087-1.263 3.783-1.612.696-2.922-.091-3.608-1.68-.691-1.601-.361-3.082 1.251-3.779zm-9.879 1.886c-2.235.524-3.007 1.904-2.425 4.383l1.1 4.689 1.368-.321-1.103-4.701c-.381-1.625-.01-2.407 1.357-2.728 1.343-.315 2.047.215 2.428 1.839l1.104 4.702 1.367-.321-1.1-4.689c-.582-2.479-1.91-3.366-4.096-2.853zm-9.864 1.503c-1.853.114-3.07 1.157-3.558 2.821l1.282.826c.186-1.268.906-2.218 2.346-2.307 1.728-.106 2.618 1.083 2.725 2.81.108 1.741-.63 3.018-2.358 3.125-1.44.089-2.27-.752-2.612-2.001l-1.171.978c.69 1.603 2.026 2.476 3.878 2.361 2.58-.159 3.915-2.139 3.766-4.555-.15-2.417-1.719-4.217-4.298-4.058zm-7.866.097l-.423 3.638-4.012-.466.423-3.638-1.408-.164-.97 8.348 1.408.164.402-3.464 4.012.466-.402 3.464 1.408.163.97-8.348-1.408-.163zM58.283 135.9l-.379 1.01 2.948 1.106.379-1.01-2.948-1.106zm-9.069-7.99c-1.554-1.038-3.2-.492-4.304 1.048l1.432-2.845-.751-.501-2.417 3.62 3.192 2.131.662-.991-2.013-1.344c.898-.803 1.844-1.091 3.023-.304 1.377.919 1.387 2.373.398 3.854-.969 1.451-2.319 2.027-3.78 1.052-1.126-.752-1.334-1.886-.944-2.923l-1.51.048c-.362 1.583.249 3.016 1.72 3.998 2.17 1.449 4.393.716 5.765-1.339 1.484-2.222 1.322-4.306-.473-5.504zm-10.355-8.333l-.864.909 3.282 3.12-1.66 1.745-2.718-2.583-.864.909 2.719 2.584-1.538 1.618-3.283-3.119-.864.909 4.31 4.096 5.79-6.092-4.31-4.096zm-4.207-4.994l-5.673 4.352-1.573-2.05-.995.763 4.001 5.215.995-.763-1.565-2.04 5.673-4.353-.863-1.124zm-6.242-10.256l-7.613 3.56.6 1.284 7.613-3.56-.6-1.284zm-1.942-4.474l-4.408 1.412-1.427.562.902-1.092 3.666-4.836-.398-1.243L16.8 97.22l.432 1.35 4.396-1.408 1.49-.57-1.001 1.19-3.622 4.73.402 1.255 8.003-2.565-.432-1.35zm-3.4-16.805l-7.14.386-.139-2.58-1.252.067.355 6.563 1.252-.067-.139-2.568 7.14-.386-.077-1.415zm.356-9.122c.274-2.443-1.42-4.325-3.839-4.597-2.406-.27-4.476 1.19-4.75 3.633-.275 2.455 1.42 4.325 3.827 4.594 2.418.272 4.486-1.175 4.762-3.63zm-1.345-.164c-.196 1.745-1.518 2.506-3.25 2.311-1.721-.193-2.854-1.229-2.659-2.974.196-1.745 1.53-2.492 3.25-2.299 1.733.195 2.855 1.217 2.659 2.962zm3.203-9.362c.65-2.2-.166-3.554-2.608-4.276l-4.62-1.365-.397 1.347 4.63 1.37c1.6.472 2.097 1.181 1.7 2.528-.392 1.324-1.201 1.673-2.801 1.2l-4.632-1.369-.398 1.348 4.62 1.365c2.441.721 3.87.006 4.506-2.148zm3.567-9.359c.823-1.663.526-3.239-.674-4.49l-1.355.7c1.007.793 1.471 1.89.832 3.184-.768 1.55-2.243 1.73-3.794.962-1.563-.773-2.303-2.05-1.535-3.6.64-1.293 1.783-1.595 3.036-1.269l-.264-1.502c-1.735-.201-3.157.523-3.98 2.186-1.147 2.316-.095 4.46 2.075 5.534 2.17 1.075 4.512.61 5.659-1.705zm3.74-6.792l-2.947-2.177 2.4-3.248L34.988 45l.842-1.14-6.76-4.994-.842 1.14 2.805 2.072-2.4 3.25-2.805-2.073-.842 1.14 6.76 4.994.843-1.14zm9.334-14.499l-.694-.827-2.412 2.024.694.827 2.412-2.024zm11.52-4.09c1.669-.842 2.005-2.543 1.208-4.262l1.77 2.647.807-.406-1.96-3.887-3.427 1.729.537 1.064 2.161-1.09c.257 1.177.041 2.142-1.224 2.78-1.479.746-2.749.038-3.55-1.552-.786-1.557-.623-3.016.945-3.807 1.21-.61 2.3-.232 3.01.618l.701-1.338c-1.198-1.095-2.747-1.27-4.326-.473-2.33 1.175-2.788 3.471-1.675 5.677 1.203 2.386 3.097 3.271 5.023 2.3zm12.076-4.842l-.365-1.2-4.332 1.316-.7-2.304 3.588-1.09-.364-1.2-3.589 1.09-.649-2.137 4.333-1.316-.365-1.2-5.689 1.728 2.443 8.041 5.689-1.728zm6.419-1.244l-.989-7.081 2.56-.357-.174-1.243-6.51.909.174 1.242 2.546-.355.989 7.08 1.403-.195zm12.267-.416l.68-8.376-1.413-.115-.68 8.377 1.413.114zm5.011.526l.954-4.53.217-1.517.503 1.323 2.388 5.58 1.277.268 1.732-8.224-1.387-.292-.951 4.517-.243 1.577-.538-1.46-2.319-5.487-1.288-.271-1.732 8.224 1.387.292zm16.482 5.425l3.219-6.384 2.307 1.163.565-1.12-5.869-2.96-.564 1.12 2.296 1.159-3.22 6.383 1.266.639zm7.373 4.597c1.988 1.446 4.462.903 5.893-1.064 1.424-1.958 1.179-4.479-.809-5.925-1.998-1.453-4.462-.903-5.886 1.055-1.431 1.968-1.196 4.48.802 5.934zm.807-1.088c-1.42-1.033-1.427-2.558-.402-3.968 1.019-1.4 2.48-1.873 3.9-.84s1.409 2.561.391 3.96c-1.025 1.41-2.469 1.881-3.889.848zm6.631 7.451c1.593 1.652 3.173 1.61 5.006-.158l3.467-3.343-.975-1.012-3.476 3.353c-1.201 1.158-2.063 1.24-3.038.228-.958-.993-.862-1.87.338-3.027l3.477-3.353-.975-1.01-3.468 3.343c-1.833 1.767-1.915 3.362-.356 4.979zm6.501 7.851c1.042 1.536 2.56 2.052 4.24 1.625l.058-1.524c-1.186.486-2.37.35-3.18-.845-.972-1.432-.401-2.804 1.031-3.776 1.443-.978 2.918-.994 3.89.439.809 1.194.509 2.337-.392 3.266l1.438.51c1.029-1.41 1.1-3.004.057-4.54-1.45-2.138-3.834-2.28-5.838-.92-2.003 1.358-2.754 3.626-1.304 5.764zm3.95 6.354l3.341-1.502 1.656 3.684-3.341 1.502.582 1.293 7.665-3.447-.582-1.292-3.18 1.43-1.656-3.684 3.18-1.43-.581-1.293-7.665 3.446.581 1.293zm8.107 15.519l1.061-.194-.566-3.097-1.062.194.567 3.097zM80 48.833L71.5 71.5 48.834 80 71.5 88.5l8.5 22.666L88.5 88.5l22.667-8.5L88.5 71.5 80 48.833z" fill="#fff"/></svg>