<svg width="6663" height="4545" viewBox="0 0 6663 4545" fill="none" xmlns="http://www.w3.org/2000/svg">
<rect x="1859" y="1962" width="4500" height="2367" fill="#1A1A1A"/>
<rect x="1859" y="162" width="4500" height="2144" fill="white"/>
<g filter="url(#filter0_f_1602_2338)">
<path d="M1583.08 2519.91C1586.89 2517.7 1590.9 2515.45 1595.11 2513.16C2784.45 2432.12 3179.32 2745.75 4419.34 2790.85C5914.43 2845.23 6862.6 1468.94 5629.12 1965.43C4395.64 2461.93 4003.46 2506.45 3030.82 2375.04C2271.41 2272.43 1766.18 2420.38 1595.11 2513.16C1350.47 2529.83 1072.21 2563.2 746.073 2619.04C-783.274 2880.89 853.41 2680.89 1583.08 2519.91Z" fill="#516221"/>
</g>
<g filter="url(#filter1_f_1602_2338)">
<path d="M3407.33 2297.74C2673.14 2180.8 2191.81 2348.54 2042.91 2447.02C1355.65 2617.03 341.319 2888.31 1782.14 2613.38C3583.17 2269.72 3836.54 2750.14 5246.54 2815.76C6656.55 2881.38 7016.14 1339.5 5855.4 1868.64C4694.66 2397.78 4325.07 2443.9 3407.33 2297.74Z" fill="#B1C72E"/>
</g>
<g filter="url(#filter2_f_1602_2338)">
<path d="M3102.96 2238.55C2304.72 2141.27 1780.01 2290.91 1617.43 2377.9C868.622 2530.88 -236.652 2774.45 1332.73 2524.88C3294.45 2212.92 3567.42 2630.78 5101.32 2678.8C6635.23 2726.81 6784.96 1381.89 5518.9 1851.6C4252.85 2321.31 4100.75 2360.14 3102.96 2238.55Z" fill="#E5F9BA"/>
</g>
<g filter="url(#filter3_f_1602_2338)">
<path d="M3062.7 2123.36C2263.93 2008.68 1739.99 2176.78 1577.87 2275.17C829.848 2446.01 -274.169 2718.44 1293.93 2441.38C3254.06 2095.06 3529.24 2572.71 5063.44 2634.72C6597.63 2696.74 6868.46 1112.98 5604.85 1642.45C4341.24 2171.91 4061.16 2266.71 3062.7 2123.36Z" fill="white"/>
</g>
<defs>
<filter id="filter0_f_1602_2338" x="0.511719" y="1743.23" width="6310.12" height="1163.19" filterUnits="userSpaceOnUse" color-interpolation-filters="sRGB">
<feFlood flood-opacity="0" result="BackgroundImageFix"/>
<feBlend mode="normal" in="SourceGraphic" in2="BackgroundImageFix" result="shape"/>
<feGaussianBlur stdDeviation="57" result="effect1_foregroundBlur_1602_2338"/>
</filter>
<filter id="filter1_f_1602_2338" x="936.219" y="1643.86" width="5726.6" height="1287.94" filterUnits="userSpaceOnUse" color-interpolation-filters="sRGB">
<feFlood flood-opacity="0" result="BackgroundImageFix"/>
<feBlend mode="normal" in="SourceGraphic" in2="BackgroundImageFix" result="shape"/>
<feGaussianBlur stdDeviation="57" result="effect1_foregroundBlur_1602_2338"/>
</filter>
<filter id="filter2_f_1602_2338" x="471.648" y="1687.89" width="5963.22" height="1056.17" filterUnits="userSpaceOnUse" color-interpolation-filters="sRGB">
<feFlood flood-opacity="0" result="BackgroundImageFix"/>
<feBlend mode="normal" in="SourceGraphic" in2="BackgroundImageFix" result="shape"/>
<feGaussianBlur stdDeviation="32" result="effect1_foregroundBlur_1602_2338"/>
</filter>
<filter id="filter3_f_1602_2338" x="463.382" y="1499.95" width="5975.94" height="1170.55" filterUnits="userSpaceOnUse" color-interpolation-filters="sRGB">
<feFlood flood-opacity="0" result="BackgroundImageFix"/>
<feBlend mode="normal" in="SourceGraphic" in2="BackgroundImageFix" result="shape"/>
<feGaussianBlur stdDeviation="17" result="effect1_foregroundBlur_1602_2338"/>
</filter>
</defs>
</svg>
