<svg width="3325" height="1172" fill="none" xmlns="http://www.w3.org/2000/svg"><g filter="url(#filter0_f_1136_2454)"><path d="M820.824 750.378a212.808 212.808 0 015.734-5.09c572.842-50.527 766.482 195.648 1365.052 243.04 721.69 57.142 1165.08-995.985 575.16-625.104-589.93 370.882-778.64 401.286-1249.11 289.954-367.34-86.925-609.53 22.196-691.102 92.11-117.831 10.393-251.707 33.34-408.451 73.153-735.01 186.689 52.399 48.841 402.717-68.063z" fill="#516221"/></g><g filter="url(#filter1_f_1136_2454)"><path d="M1698.48 597.306c-355.31-97.732-585.78 26.911-656.6 101.449-329.773 124.308-816.273 323.505-124.095 125.811C1783.01 577.452 1910.09 950.99 2590.85 1015.95c680.77 64.96 838.59-1122 284.08-725.175-554.51 396.825-732.31 428.696-1176.45 306.531z" fill="#B1C72E"/></g><g filter="url(#filter2_f_1136_2454)"><path d="M1551.07 548.516c-386.01-83.203-637.582 27.031-715.118 92.549-359.63 110.54-890.278 287.419-135.835 110.612C1643.17 530.669 1779.07 856.096 2519.42 908.717c740.35 52.621 798.94-984.378 193.03-634.507-605.91 349.87-678.88 378.309-1161.38 274.306z" fill="#E5F9BA"/></g><g filter="url(#filter3_f_1136_2454)"><path d="M1530.46 459.225c-386.43-96.666-637.447 27.817-714.652 102.142C456.733 685.691-73.026 884.836 680.532 686.826 1622.48 439.313 1760.03 810.937 2500.66 874.406c740.63 63.47 855.27-1156.71 251.13-760.709-604.15 396.001-738.28 466.36-1221.33 345.528z" fill="#fff"/></g><defs><filter id="filter0_f_1136_2454" x=".74" y="169.895" width="3153.69" height="934.684" filterUnits="userSpaceOnUse" color-interpolation-filters="sRGB"><feFlood flood-opacity="0" result="BackgroundImageFix"/><feBlend in="SourceGraphic" in2="BackgroundImageFix" result="shape"/><feGaussianBlur stdDeviation="57" result="effect1_foregroundBlur_1136_2454"/></filter><filter id="filter1_f_1136_2454" x="451.899" y="95.403" width="2872.91" height="1037.12" filterUnits="userSpaceOnUse" color-interpolation-filters="sRGB"><feFlood flood-opacity="0" result="BackgroundImageFix"/><feBlend in="SourceGraphic" in2="BackgroundImageFix" result="shape"/><feGaussianBlur stdDeviation="57" result="effect1_foregroundBlur_1136_2454"/></filter><filter id="filter2_f_1136_2454" x="252.708" y="137.943" width="2936.48" height="836.716" filterUnits="userSpaceOnUse" color-interpolation-filters="sRGB"><feFlood flood-opacity="0" result="BackgroundImageFix"/><feBlend in="SourceGraphic" in2="BackgroundImageFix" result="shape"/><feGaussianBlur stdDeviation="32" result="effect1_foregroundBlur_1136_2454"/></filter><filter id="filter3_f_1136_2454" x="263.482" y=".451" width="2910.33" height="910.355" filterUnits="userSpaceOnUse" color-interpolation-filters="sRGB"><feFlood flood-opacity="0" result="BackgroundImageFix"/><feBlend in="SourceGraphic" in2="BackgroundImageFix" result="shape"/><feGaussianBlur stdDeviation="17" result="effect1_foregroundBlur_1136_2454"/></filter></defs></svg>