<?xml version="1.0" standalone="no"?>
<!DOCTYPE svg PUBLIC "-//W3C//DTD SVG 20010904//EN"
 "http://www.w3.org/TR/2001/REC-SVG-20010904/DTD/svg10.dtd">
<svg version="1.0" xmlns="http://www.w3.org/2000/svg"
 width="700.000000pt" height="700.000000pt" viewBox="0 0 700.000000 700.000000"
 preserveAspectRatio="xMidYMid meet">
<metadata>
Created by potrace 1.14, written by Peter Selinger 2001-2017
</metadata>
<g transform="translate(0.000000,700.000000) scale(0.100000,-0.100000)"
fill="#000000" stroke="none">
<path d="M3285 6843 c2 -87 7 -243 10 -348 3 -104 7 -269 10 -365 3 -96 7
-258 10 -360 3 -102 7 -257 10 -345 2 -88 7 -250 10 -360 9 -343 23 -856 30
-1073 l5 -163 -77 82 c-90 95 -99 104 -293 309 -80 84 -158 167 -175 185 -16
17 -97 103 -180 190 -82 87 -166 175 -185 195 -19 20 -99 104 -176 186 -78 82
-156 165 -174 184 -18 19 -98 103 -177 187 -80 84 -156 165 -170 180 -14 15
-69 73 -122 129 -53 55 -157 165 -231 243 -74 79 -154 163 -177 188 l-43 45
-32 -28 c-18 -16 -91 -88 -162 -161 l-129 -132 44 -42 c193 -181 325 -305 393
-370 45 -42 97 -91 116 -109 55 -51 290 -271 331 -310 41 -40 271 -256 339
-320 25 -23 104 -97 175 -164 72 -68 142 -134 156 -147 15 -13 89 -83 165
-155 77 -72 151 -142 165 -155 15 -13 88 -82 164 -154 75 -71 165 -156 199
-188 l61 -58 -230 6 c-126 3 -297 8 -380 10 -139 4 -276 8 -720 20 -93 3 -246
7 -340 10 -93 2 -262 7 -375 10 -113 3 -268 7 -345 10 -129 4 -558 15 -717 19
l-68 2 0 -226 0 -226 83 2 c178 5 559 15 682 19 72 2 231 7 355 10 124 3 295
8 380 10 85 3 238 7 340 10 180 4 412 11 710 20 80 2 253 7 385 10 l240 5 -60
-56 c-33 -31 -120 -113 -194 -183 -73 -69 -150 -141 -170 -160 -20 -18 -67
-63 -106 -99 -38 -36 -135 -127 -215 -203 -80 -75 -161 -151 -180 -169 -19
-18 -95 -89 -169 -159 -73 -69 -145 -137 -160 -151 -133 -123 -330 -309 -513
-482 -79 -76 -153 -145 -165 -155 -11 -10 -82 -76 -158 -148 -75 -71 -156
-147 -178 -168 l-41 -38 161 -161 162 -162 37 40 c20 21 103 109 184 194 81
85 164 173 184 195 33 35 228 240 351 370 77 82 310 328 344 364 19 20 98 104
176 186 79 83 157 166 175 185 18 19 73 78 124 131 86 90 327 344 397 419 91
98 189 199 198 205 7 4 9 -39 6 -122 -11 -330 -16 -497 -20 -603 -2 -63 -7
-207 -10 -320 -3 -113 -8 -250 -10 -305 -2 -55 -7 -192 -10 -305 -4 -113 -8
-250 -10 -305 -2 -55 -6 -194 -10 -310 -3 -116 -8 -257 -10 -315 -3 -58 -7
-204 -10 -325 -3 -121 -8 -226 -10 -232 -3 -10 46 -13 225 -13 l230 0 -5 162
c-3 90 -7 251 -10 358 -3 107 -7 263 -10 345 -3 83 -7 242 -10 355 -3 113 -8
277 -10 365 -22 777 -24 847 -30 1070 -3 110 -8 271 -11 358 l-5 158 88 -92
c90 -94 223 -236 282 -299 53 -56 291 -308 346 -365 28 -29 75 -79 105 -111
30 -33 121 -129 201 -214 81 -85 166 -175 189 -200 59 -63 310 -328 402 -426
43 -44 86 -90 95 -101 10 -11 82 -87 160 -169 78 -82 180 -189 227 -239 l85
-90 162 162 163 162 -50 46 c-137 130 -303 286 -334 315 -19 18 -71 66 -116
108 -94 90 -343 325 -394 372 -19 18 -96 90 -170 160 -74 70 -151 142 -170
160 -19 18 -93 87 -164 154 -148 139 -159 149 -332 312 -71 67 -145 136 -164
154 -19 18 -96 90 -170 160 -74 70 -160 151 -190 179 l-55 51 255 -5 c140 -4
309 -8 375 -10 66 -2 221 -6 345 -10 124 -3 295 -8 380 -10 85 -3 243 -7 350
-10 107 -2 281 -7 385 -10 105 -3 258 -8 340 -10 306 -8 573 -16 658 -19 l87
-3 0 227 0 228 -82 -4 c-46 -1 -184 -5 -308 -9 -217 -5 -333 -9 -710 -20 -96
-2 -267 -7 -380 -10 -113 -3 -266 -8 -340 -10 -74 -2 -236 -7 -360 -10 -124
-3 -279 -8 -345 -10 -66 -2 -239 -7 -385 -10 l-265 -6 70 66 c39 36 124 117
190 179 66 63 136 128 155 146 19 18 94 88 165 155 72 68 144 135 160 151 17
15 98 91 180 169 83 78 177 167 210 197 67 63 85 79 281 264 76 72 157 148
179 169 22 20 96 90 165 155 69 65 145 137 170 160 25 23 101 95 170 160 69
65 145 136 170 159 l45 41 -163 162 -162 163 -78 -81 c-42 -45 -132 -139 -199
-210 -190 -201 -199 -211 -349 -370 -78 -82 -156 -165 -174 -184 -18 -19 -94
-100 -170 -180 -76 -80 -152 -161 -170 -180 -36 -39 -249 -265 -320 -339 -117
-124 -331 -350 -360 -381 -18 -19 -96 -102 -174 -184 -77 -82 -151 -160 -164
-175 l-22 -26 5 165 c2 91 7 251 10 355 3 105 7 267 10 360 5 184 13 443 20
705 3 91 7 260 10 375 3 116 7 278 10 360 2 83 7 242 10 355 3 113 8 271 10
353 l5 147 -220 0 -219 0 4 -157z"/>
</g>
</svg>
