<svg width="3325" height="1171" fill="none" xmlns="http://www.w3.org/2000/svg"><g filter="url(#filter0_f_1125_2331)"><path d="M820.824 420.837a214.547 214.547 0 005.734 5.091C1399.4 476.454 1593.04 230.279 2191.61 182.887c721.69-57.14 1165.08 995.983 575.16 625.104-589.93-370.882-778.64-401.285-1249.11-289.954-367.34 86.925-609.53-22.195-691.102-92.109-117.831-10.393-251.707-33.34-408.451-73.153-735.01-186.692 52.399-48.842 402.717 68.062z" fill="#516221"/></g><g filter="url(#filter1_f_1125_2331)"><path d="M1698.48 573.91c-355.32 97.732-585.78-26.912-656.6-101.45-329.773-124.308-816.273-323.502-124.095-125.811C1783.01 593.763 1910.09 220.225 2590.85 155.267c680.77-64.959 838.59 1121.993 284.08 725.173-554.51-396.825-732.31-428.695-1176.45-306.53z" fill="#C7DD43"/></g><g filter="url(#filter2_f_1125_2331)"><path d="M1551.07 622.7c-386.01 83.202-637.582-27.032-715.118-92.549-359.63-110.541-890.278-287.42-135.835-110.613C1643.17 640.546 1779.07 315.12 2519.42 262.499c740.35-52.622 798.94 984.381 193.03 634.507-605.91-349.871-678.88-378.309-1161.38-274.306z" fill="#E5F9BA"/></g><g filter="url(#filter3_f_1125_2331)"><path d="M1530.46 711.991c-386.43 96.666-637.447-27.818-714.652-102.143C456.733 485.524-73.026 286.379 680.532 484.389c941.948 247.513 1079.498-124.11 1820.128-187.58 740.63-63.47 855.27 1156.711 251.13 760.711-604.15-396.003-738.28-466.362-1221.33-345.529z" fill="#fff"/></g><defs><filter id="filter0_f_1125_2331" x=".74" y="66.637" width="3153.69" height="934.684" filterUnits="userSpaceOnUse" color-interpolation-filters="sRGB"><feFlood flood-opacity="0" result="BackgroundImageFix"/><feBlend in="SourceGraphic" in2="BackgroundImageFix" result="shape"/><feGaussianBlur stdDeviation="57" result="effect1_foregroundBlur_1125_2331"/></filter><filter id="filter1_f_1125_2331" x="451.899" y="38.687" width="2872.91" height="1037.13" filterUnits="userSpaceOnUse" color-interpolation-filters="sRGB"><feFlood flood-opacity="0" result="BackgroundImageFix"/><feBlend in="SourceGraphic" in2="BackgroundImageFix" result="shape"/><feGaussianBlur stdDeviation="57" result="effect1_foregroundBlur_1125_2331"/></filter><filter id="filter2_f_1125_2331" x="252.708" y="196.557" width="2936.48" height="836.716" filterUnits="userSpaceOnUse" color-interpolation-filters="sRGB"><feFlood flood-opacity="0" result="BackgroundImageFix"/><feBlend in="SourceGraphic" in2="BackgroundImageFix" result="shape"/><feGaussianBlur stdDeviation="32" result="effect1_foregroundBlur_1125_2331"/></filter><filter id="filter3_f_1125_2331" x="263.482" y="260.409" width="2910.33" height="910.355" filterUnits="userSpaceOnUse" color-interpolation-filters="sRGB"><feFlood flood-opacity="0" result="BackgroundImageFix"/><feBlend in="SourceGraphic" in2="BackgroundImageFix" result="shape"/><feGaussianBlur stdDeviation="17" result="effect1_foregroundBlur_1125_2331"/></filter></defs></svg>