<svg width="4097" height="2923" fill="none" xmlns="http://www.w3.org/2000/svg"><g filter="url(#filter0_f_1178_2318)"><path d="M3144.55 692.204a365.03 365.03 0 01-4.47 11.737c-727.41 324.139-1134.69-53.92-1956.19 99.196C193.408 987.748 252.026 3116.9 805.654 2192.49 1359.28 1268.09 1590.48 1135.82 2281.6 1152.7c539.6 13.17 793.34-286.428 858.48-448.759 149.62-66.674 312.79-163.058 495.9-299.887 858.63-641.621-99.32-69.38-491.43 288.15z" fill="#516221"/></g><g filter="url(#filter1_f_1178_2318)"><path d="M2076.46 1328.96c530.31 38.03 759.02-285.6 807.08-452.169 360.38-362.976 882.34-927.739 87.16-282.982-993.98 805.941-1391.22 165.188-2332.31 318.847-941.091 153.654-422.351 2415.774 68.484 1457.564 490.836-958.2 706.686-1088.79 1369.586-1041.26z" fill="#B1C72E"/></g><g filter="url(#filter2_f_1178_2318)"><path d="M2326 1428.05c567.98 15.25 827.18-307.64 885.78-470.987 402.27-366.373 986.55-934.845 105.48-277.739-1101.34 821.386-1501.11 216.711-2518.3 403.916-1017.188 187.21-395.184 2309.09 172.165 1360.67C1538.47 1495.49 1616.04 1408.99 2326 1428.05z" fill="#E0E9CD"/></g><g filter="url(#filter3_f_1178_2318)"><path d="M2383.55 1517.12c570.86 23.53 826.87-308.08 883.51-476.82 399.16-374.806 978.42-956.895 102.18-286.835C2273.93 1591.04 1864 958.044 844.572 1138.56c-1019.429 180.52-423.148 2486.79 133.901 1510.13 557.047-976.66 691.497-1160.97 1405.077-1131.57z" fill="#fff"/></g><defs><filter id="filter0_f_1178_2318" x="295.449" y=".063" width="3801.34" height="2538.01" filterUnits="userSpaceOnUse" color-interpolation-filters="sRGB"><feFlood flood-opacity="0" result="BackgroundImageFix"/><feBlend in="SourceGraphic" in2="BackgroundImageFix" result="shape"/><feGaussianBlur stdDeviation="57" result="effect1_foregroundBlur_1178_2318"/></filter><filter id="filter1_f_1178_2318" x=".474" y="185.932" width="3501.34" height="2534.05" filterUnits="userSpaceOnUse" color-interpolation-filters="sRGB"><feFlood flood-opacity="0" result="BackgroundImageFix"/><feBlend in="SourceGraphic" in2="BackgroundImageFix" result="shape"/><feGaussianBlur stdDeviation="57" result="effect1_foregroundBlur_1178_2318"/></filter><filter id="filter2_f_1178_2318" x="192.325" y="313.865" width="3648.99" height="2436.96" filterUnits="userSpaceOnUse" color-interpolation-filters="sRGB"><feFlood flood-opacity="0" result="BackgroundImageFix"/><feBlend in="SourceGraphic" in2="BackgroundImageFix" result="shape"/><feGaussianBlur stdDeviation="32" result="effect1_foregroundBlur_1178_2318"/></filter><filter id="filter3_f_1178_2318" x="256.827" y="412.729" width="3604.59" height="2510.09" filterUnits="userSpaceOnUse" color-interpolation-filters="sRGB"><feFlood flood-opacity="0" result="BackgroundImageFix"/><feBlend in="SourceGraphic" in2="BackgroundImageFix" result="shape"/><feGaussianBlur stdDeviation="17" result="effect1_foregroundBlur_1178_2318"/></filter></defs></svg>