<svg width="4528" height="3133" fill="none" xmlns="http://www.w3.org/2000/svg"><g filter="url(#filter0_f_1179_2327)"><path d="M3343.75 2266.65c-1.38-3.82-2.87-7.74-4.47-11.74-727.41-324.13-1134.69 53.93-1956.19-99.19-990.482-184.61-931.864-2313.762-378.24-1389.358C1558.48 1690.77 1789.68 1823.03 2480.8 1806.16c539.6-13.17 793.34 286.42 858.48 448.75 149.62 66.68 312.79 163.06 495.9 299.89 858.63 641.62-99.32 69.38-491.43-288.15z" fill="#516221"/></g><g filter="url(#filter1_f_1179_2327)"><path d="M2275.66 1629.9c530.32-38.03 759.02 285.6 807.08 452.16 360.38 362.98 882.34 927.74 87.16 282.99-993.98-805.95-1391.22-165.19-2332.31-318.85-941.091-153.66-422.351-2415.77 68.485-1457.565C1396.91 1546.84 1612.76 1677.43 2275.66 1629.9z" fill="#B1C72E"/></g><g filter="url(#filter2_f_1179_2327)"><path d="M2540.44 1488.44c571.67-25.52 826.96 308.24 883.15 478.3 398.49 376.89 976.66 962.34 101.4 289.06-1094.07-841.59-1506.51-201.69-2526.67-380.63C-21.843 1696.23 639.907-536.148 1194.6 447.454c554.7 983.606 631.27 1072.876 1345.84 1040.986z" fill="#E0E9CD"/></g><g filter="url(#filter3_f_1179_2327)"><path d="M2582.75 1441.73c570.86-23.52 826.87 308.09 883.51 476.83 399.16 374.8 978.42 956.89 102.18 286.83-1095.3-837.57-1505.24-204.58-2524.67-385.1C24.343 1639.78 620.625-666.496 1177.67 310.165c557.05 976.665 691.5 1160.975 1405.08 1131.565z" fill="#fff"/></g><defs><filter id="filter0_f_1179_2327" x="494.649" y="420.782" width="3801.34" height="2538.01" filterUnits="userSpaceOnUse" color-interpolation-filters="sRGB"><feFlood flood-opacity="0" result="BackgroundImageFix"/><feBlend in="SourceGraphic" in2="BackgroundImageFix" result="shape"/><feGaussianBlur stdDeviation="57" result="effect1_foregroundBlur_1179_2327"/></filter><filter id="filter1_f_1179_2327" x="199.674" y="238.874" width="3501.34" height="2534.05" filterUnits="userSpaceOnUse" color-interpolation-filters="sRGB"><feFlood flood-opacity="0" result="BackgroundImageFix"/><feBlend in="SourceGraphic" in2="BackgroundImageFix" result="shape"/><feGaussianBlur stdDeviation="57" result="effect1_foregroundBlur_1179_2327"/></filter><filter id="filter2_f_1179_2327" x="401.775" y="134.167" width="3645.04" height="2493.69" filterUnits="userSpaceOnUse" color-interpolation-filters="sRGB"><feFlood flood-opacity="0" result="BackgroundImageFix"/><feBlend in="SourceGraphic" in2="BackgroundImageFix" result="shape"/><feGaussianBlur stdDeviation="32" result="effect1_foregroundBlur_1179_2327"/></filter><filter id="filter3_f_1179_2327" x="456.028" y="36.036" width="3604.59" height="2510.09" filterUnits="userSpaceOnUse" color-interpolation-filters="sRGB"><feFlood flood-opacity="0" result="BackgroundImageFix"/><feBlend in="SourceGraphic" in2="BackgroundImageFix" result="shape"/><feGaussianBlur stdDeviation="17" result="effect1_foregroundBlur_1179_2327"/></filter></defs></svg>