<svg width="156" height="156" viewBox="0 0 156 156" fill="none" xmlns="http://www.w3.org/2000/svg">
<circle cx="78" cy="78" r="78" fill="#F5F5F5"/>
<path d="M142 78C142 113.346 113.346 142 78 142C42.6538 142 14 113.346 14 78C14 42.6538 42.6538 14 78 14C113.346 14 142 42.6538 142 78Z" stroke="#121212" stroke-width="2"/>
<path d="M124.192 80.473C124.087 81.9879 125.135 82.9292 126.667 83.0868L124.083 83.2238L124.032 83.9558L127.56 84.2012L127.776 81.09L126.81 81.0229L126.674 82.9851C125.745 82.6753 125.161 82.1238 125.24 80.975C125.334 79.6329 126.356 79.04 127.8 79.1404C129.213 79.2387 130.164 79.9586 130.065 81.382C129.988 82.4801 129.272 83.0841 128.384 83.2266L129.026 84.2725C130.289 83.8904 131.054 82.8811 131.153 81.4475C131.301 79.3328 129.887 78.0596 127.884 77.9203C125.719 77.7697 124.314 78.7243 124.192 80.473Z" fill="#121212"/>
<path d="M122.459 91.2562L123.448 91.504L124.343 87.9353L126.241 88.4112L125.5 91.367L126.488 91.6148L127.229 88.659L128.989 89.1002L128.094 92.6689L129.083 92.9168L130.258 88.231L123.634 86.5704L122.459 91.2562Z" fill="#121212"/>
<path d="M120.643 96.1691L125.993 98.4321L125.175 100.366L126.114 100.763L128.194 95.8442L127.255 95.4472L126.442 97.3715L121.091 95.1085L120.643 96.1691Z" fill="#121212"/>
<path d="M115.866 104.722L121.432 108.678L122.099 107.74L116.534 103.784L115.866 104.722Z" fill="#121212"/>
<path d="M113.48 107.877L116.253 110.418L117.225 111.198L116.091 111.002L111.201 110.364L110.485 111.145L115.519 115.759L116.298 114.91L113.532 112.376L112.53 111.554L113.773 111.781L118.57 112.43L119.293 111.641L114.258 107.028L113.48 107.877Z" fill="#121212"/>
<path d="M102.896 117.099L106.032 121.989L104.265 123.122L104.815 123.98L109.31 121.097L108.76 120.239L107.001 121.367L103.865 116.477L102.896 117.099Z" fill="#121212"/>
<path d="M96.5017 120.409C94.6678 121.2 94.0241 123.155 94.8079 124.97C95.5876 126.776 97.4515 127.647 99.2854 126.855C101.129 126.059 101.763 124.109 100.983 122.303C100.199 120.488 98.345 119.613 96.5017 120.409ZM96.9287 121.423C98.2386 120.857 99.3082 121.484 99.8698 122.784C100.427 124.075 100.154 125.292 98.8437 125.858C97.5338 126.424 96.4695 125.784 95.912 124.493C95.3504 123.192 95.6188 121.989 96.9287 121.423Z" fill="#121212"/>
<path d="M88.9011 122.955C87.0853 123.381 86.4584 124.502 86.931 126.516L87.8248 130.326L88.9361 130.065L88.0399 126.245C87.7303 124.926 88.0313 124.29 89.1426 124.029C90.234 123.773 90.8062 124.204 91.1158 125.524L92.012 129.344L93.1233 129.083L92.2294 125.273C91.7569 123.259 90.6772 122.538 88.9011 122.955Z" fill="#121212"/>
<path d="M80.8869 124.176C79.3815 124.269 78.3923 125.117 77.9959 126.469L79.0381 127.139C79.1888 126.109 79.7742 125.338 80.944 125.265C82.3478 125.178 83.0712 126.145 83.158 127.548C83.2454 128.962 82.6458 130 81.2421 130.087C80.0723 130.159 79.397 129.476 79.1198 128.462L78.1682 129.256C78.7287 130.559 79.814 131.268 81.3195 131.175C83.415 131.045 84.5 129.436 84.3787 127.473C84.2573 125.51 82.9824 124.047 80.8869 124.176Z" fill="#121212"/>
<path d="M74.4954 124.255L74.1521 127.211L70.8923 126.832L71.2356 123.876L70.0917 123.743L69.3039 130.526L70.4478 130.659L70.7747 127.845L74.0345 128.223L73.7076 131.038L74.8516 131.17L75.6394 124.388L74.4954 124.255Z" fill="#121212"/>
<path d="M60.3555 123.418L60.0476 124.239L62.4426 125.138L62.7505 124.317L60.3555 123.418Z" fill="#121212"/>
<path d="M52.9869 116.927C51.7239 116.084 50.3866 116.527 49.4898 117.778L50.653 115.467L50.0428 115.06L48.0791 118.001L50.6729 119.732L51.2104 118.927L49.5745 117.835C50.3042 117.183 51.0732 116.948 52.0311 117.588C53.1499 118.335 53.1576 119.516 52.3541 120.72C51.5675 121.898 50.4704 122.367 49.2838 121.575C48.3683 120.963 48.1993 120.042 48.5165 119.2L47.2897 119.238C46.9949 120.524 47.4916 121.689 48.6867 122.487C50.4498 123.664 52.2564 123.069 53.3712 121.399C54.5765 119.594 54.4448 117.9 52.9869 116.927Z" fill="#121212"/>
<path d="M44.5727 110.156L43.8706 110.895L46.5375 113.429L45.1895 114.848L42.9806 112.748L42.2785 113.487L44.4874 115.587L43.2377 116.901L40.5708 114.367L39.8687 115.106L43.3704 118.434L48.0744 113.484L44.5727 110.156Z" fill="#121212"/>
<path d="M41.1547 106.099L36.5458 109.635L35.2678 107.969L34.4592 108.59L37.71 112.827L38.5186 112.206L37.2468 110.549L41.8557 107.013L41.1547 106.099Z" fill="#121212"/>
<path d="M36.0834 97.7655L29.8979 100.658L30.3857 101.701L36.5712 98.8087L36.0834 97.7655Z" fill="#121212"/>
<path d="M34.5054 94.1305L30.924 95.2779L29.7648 95.7349L30.4972 94.8474L33.4762 90.9179L33.1528 89.9085L26.65 91.9918L27.0014 93.0886L30.5731 91.9443L31.7839 91.4815L30.9701 92.4485L28.0275 96.2915L28.354 97.3105L34.8568 95.2272L34.5054 94.1305Z" fill="#121212"/>
<path d="M31.743 80.4762L25.9423 80.7898L25.8289 78.6934L24.8113 78.7484L25.0996 84.0811L26.1173 84.026L26.0045 81.9398L31.8052 81.6261L31.743 80.4762Z" fill="#121212"/>
<path d="M32.0321 73.0646C32.2549 71.0795 30.8779 69.5507 28.9131 69.3302C26.9584 69.1107 25.2767 70.2962 25.0539 72.2813C24.8299 74.2765 26.208 75.7952 28.1627 76.0146C30.1276 76.2352 31.8081 75.0598 32.0321 73.0646ZM30.9394 72.9317C30.7802 74.3496 29.7058 74.9674 28.298 74.8094C26.9004 74.6525 25.9796 73.8107 26.1387 72.3928C26.2979 70.9749 27.3813 70.3684 28.7789 70.5253C30.1867 70.6833 31.0986 71.5138 30.9394 72.9317Z" fill="#121212"/>
<path d="M33.5414 65.3254C34.07 63.5368 33.4066 62.4374 31.4226 61.851L27.6695 60.7418L27.3459 61.8364L31.1088 62.9486C32.4087 63.3327 32.8123 63.909 32.4888 65.0036C32.171 66.0788 31.5132 66.3626 30.2133 65.9784L26.4505 64.8663L26.127 65.9609L29.88 67.0702C31.8641 67.6566 33.0244 67.0749 33.5414 65.3254Z" fill="#121212"/>
<path d="M36.4399 57.7212C37.1091 56.3694 36.867 55.0896 35.8922 54.0725L34.7914 54.642C35.6098 55.286 35.9871 56.1779 35.4671 57.2282C34.8431 58.4887 33.645 58.6347 32.3845 58.0107C31.1149 57.3822 30.5138 56.3454 31.1378 55.0849C31.6578 54.0346 32.5866 53.7893 33.6041 54.0542L33.3896 52.8336C31.9805 52.6705 30.8252 53.2585 30.1559 54.6102C29.2245 56.4918 30.0791 58.2341 31.8419 59.1067C33.6047 59.9794 35.5084 59.6027 36.4399 57.7212Z" fill="#121212"/>
<path d="M39.4782 52.202L37.0845 50.4338L39.0343 47.7941L41.428 49.5623L42.1123 48.6359L36.6198 44.5789L35.9355 45.5053L38.2145 47.1886L36.2647 49.8283L33.9858 48.1449L33.3015 49.0713L38.794 53.1283L39.4782 52.202Z" fill="#121212"/>
<path d="M47.0625 40.4216L46.4991 39.7502L44.5396 41.3945L45.103 42.0659L47.0625 40.4216Z" fill="#121212"/>
<path d="M56.4229 37.0987C57.7787 36.4149 58.052 35.0329 57.4045 33.6359L58.8431 35.7868L59.4983 35.4564L57.9058 32.2987L55.1212 33.7031L55.5572 34.5675L57.3135 33.6818C57.5219 34.6382 57.3469 35.4228 56.3186 35.9414C55.1174 36.5472 54.0853 35.9719 53.4337 34.6797C52.7957 33.4148 52.9284 32.2293 54.2023 31.5868C55.1851 31.0912 56.0704 31.3981 56.6471 32.0889L57.2176 31.0021C56.2437 30.1121 54.9853 29.9706 53.7022 30.6177C51.8094 31.5723 51.4376 33.4378 52.3417 35.2304C53.3192 37.1687 54.8577 37.8881 56.4229 37.0987Z" fill="#121212"/>
<path d="M66.2345 33.1645L65.9383 32.1893L62.418 33.2588L61.8492 31.3865L64.7649 30.5007L64.4686 29.5256L61.5529 30.4113L61.0256 28.6756L64.5459 27.6061L64.2497 26.6309L59.6274 28.0352L61.6123 34.5687L66.2345 33.1645Z" fill="#121212"/>
<path d="M71.4496 32.1537L70.6466 26.4002L72.7259 26.11L72.585 25.1006L67.2959 25.8389L67.4368 26.8482L69.506 26.5594L70.309 32.3129L71.4496 32.1537Z" fill="#121212"/>
<path d="M81.4167 31.8162L81.9692 25.0102L80.8213 24.917L80.2688 31.723L81.4167 31.8162Z" fill="#121212"/>
<path d="M85.4878 32.2434L86.2628 28.5634L86.4393 27.3299L86.8481 28.4054L88.7888 32.9386L89.826 33.157L91.2332 26.4752L90.1063 26.2378L89.3333 29.9079L89.1364 31.1891L88.6987 30.0033L86.8152 25.5447L85.7681 25.3242L84.3609 32.006L85.4878 32.2434Z" fill="#121212"/>
<path d="M98.8794 36.651L101.495 31.4641L103.37 32.4095L103.829 31.4995L99.0605 29.0947L98.6016 30.0047L100.467 30.9455L97.8512 36.1324L98.8794 36.651Z" fill="#121212"/>
<path d="M104.871 40.3865C106.486 41.5615 108.496 41.1204 109.659 39.5215C110.816 37.9308 110.617 35.883 109.001 34.7079C107.378 33.5269 105.376 33.974 104.219 35.5647C103.056 37.1636 103.247 39.2054 104.871 40.3865ZM105.526 39.5024C104.372 38.663 104.367 37.4237 105.2 36.2781C106.027 35.1407 107.214 34.7564 108.368 35.5958C109.522 36.4351 109.514 37.6767 108.686 38.8141C107.853 39.9597 106.68 40.3417 105.526 39.5024Z" fill="#121212"/>
<path d="M110.914 45.556C112.208 46.8986 113.492 46.8642 114.981 45.4281L117.798 42.7115L117.006 41.8899L114.181 44.6135C113.206 45.5544 112.505 45.621 111.713 44.7993C110.935 43.9923 111.013 43.2802 111.988 42.3393L114.813 39.6156L114.021 38.7939L111.203 41.5105C109.714 42.9467 109.647 44.2428 110.914 45.556Z" fill="#121212"/>
<path d="M116.196 51.9345C117.043 53.1829 118.276 53.6027 119.641 53.2554L119.688 52.0169C118.724 52.4119 117.762 52.3008 117.104 51.3308C116.315 50.1669 116.778 49.0523 117.942 48.2628C119.114 47.4676 120.313 47.4552 121.102 48.6192C121.76 49.5892 121.516 50.5183 120.784 51.2732L121.952 51.6879C122.788 50.5421 122.846 49.247 121.999 47.9986C120.821 46.2611 118.883 46.1466 117.255 47.2507C115.628 48.3548 115.018 50.197 116.196 51.9345Z" fill="#121212"/>
<path d="M119.406 57.098L122.12 55.8777L123.465 58.8708L120.751 60.0911L121.223 61.1415L127.451 58.3414L126.979 57.291L124.395 58.4528L123.049 55.4597L125.633 54.2979L125.161 53.2476L118.933 56.0476L119.406 57.098Z" fill="#121212"/>
<path d="M125.992 69.7067L126.854 69.5491L126.394 67.0327L125.532 67.1903L125.992 69.7067Z" fill="#121212"/>
<path d="M77.9999 52.6772L71.0937 71.0939L52.677 78.0002L71.0937 84.9064L77.9999 103.323L84.9062 84.9064L103.323 78.0002L84.9062 71.0939L77.9999 52.6772Z" fill="#121212"/>
</svg>
