<svg width="7968" height="5399" viewBox="0 0 7968 5399" fill="none" xmlns="http://www.w3.org/2000/svg">
<rect x="919.041" y="2455" width="4500" height="2944" fill="#1A1A1A"/>
<rect x="919.04" width="4500" height="2944" fill="white"/>
<g filter="url(#filter0_f_1601_2329)">
<path d="M5884.86 3563.65C5882.44 3559.83 5879.82 3555.91 5876.99 3551.92C4596.78 3227.78 3879.98 3605.84 2434.18 3452.72C690.975 3268.11 794.14 1138.96 1768.5 2063.36C2742.87 2987.77 3149.77 3120.03 4366.11 3103.16C5315.78 3089.99 5762.36 3389.58 5876.99 3551.92C6140.33 3618.59 6427.5 3714.97 6749.76 3851.8C8260.91 4493.42 6574.97 3921.18 5884.86 3563.65Z" fill="#516221"/>
</g>
<g filter="url(#filter1_f_1601_2329)">
<path d="M4005.07 2926.9C4938.4 2888.87 5340.91 3212.5 5425.5 3379.07C6059.75 3742.04 6978.38 4306.8 5578.89 3662.05C3829.54 2856.1 3130.41 3496.86 1474.12 3343.2C-182.158 3189.54 730.803 927.431 1594.65 1885.64C2458.5 2843.84 2838.4 2974.43 4005.07 2926.9Z" fill="#B1C72E"/>
</g>
<g filter="url(#filter2_f_1601_2329)">
<path d="M4471.08 2785.44C5477.19 2759.92 5926.49 3093.68 6025.38 3263.74C6726.71 3640.63 7744.26 4226.08 6203.85 3552.8C4278.33 2711.21 3552.45 3351.11 1757 3172.17C-38.4434 2993.23 1126.21 760.853 2102.45 1744.45C3078.69 2728.06 3213.45 2817.33 4471.08 2785.44Z" fill="#E0E9CD"/>
</g>
<g filter="url(#filter3_f_1601_2329)">
<path d="M4545.53 2738.73C5550.23 2715.21 6000.79 3046.82 6100.48 3215.56C6802.99 3590.36 7822.46 4172.45 6280.31 3502.39C4352.62 2664.82 3631.15 3297.81 1837 3117.29C42.8426 2936.78 1092.27 630.505 2072.66 1607.17C3053.04 2583.83 3289.66 2768.14 4545.53 2738.73Z" fill="white"/>
</g>
<defs>
<filter id="filter0_f_1601_2329" x="957.199" y="1717.78" width="6516.93" height="2538.01" filterUnits="userSpaceOnUse" color-interpolation-filters="sRGB">
<feFlood flood-opacity="0" result="BackgroundImageFix"/>
<feBlend mode="normal" in="SourceGraphic" in2="BackgroundImageFix" result="shape"/>
<feGaussianBlur stdDeviation="57" result="effect1_foregroundBlur_1601_2329"/>
</filter>
<filter id="filter1_f_1601_2329" x="438.053" y="1535.87" width="5988.95" height="2534.05" filterUnits="userSpaceOnUse" color-interpolation-filters="sRGB">
<feFlood flood-opacity="0" result="BackgroundImageFix"/>
<feBlend mode="normal" in="SourceGraphic" in2="BackgroundImageFix" result="shape"/>
<feGaussianBlur stdDeviation="57" result="effect1_foregroundBlur_1601_2329"/>
</filter>
<filter id="filter2_f_1601_2329" x="755.744" y="1431.17" width="6317.85" height="2493.69" filterUnits="userSpaceOnUse" color-interpolation-filters="sRGB">
<feFlood flood-opacity="0" result="BackgroundImageFix"/>
<feBlend mode="normal" in="SourceGraphic" in2="BackgroundImageFix" result="shape"/>
<feGaussianBlur stdDeviation="32" result="effect1_foregroundBlur_1601_2329"/>
</filter>
<filter id="filter3_f_1601_2329" x="828.429" y="1333.04" width="6292.25" height="2510.09" filterUnits="userSpaceOnUse" color-interpolation-filters="sRGB">
<feFlood flood-opacity="0" result="BackgroundImageFix"/>
<feBlend mode="normal" in="SourceGraphic" in2="BackgroundImageFix" result="shape"/>
<feGaussianBlur stdDeviation="17" result="effect1_foregroundBlur_1601_2329"/>
</filter>
</defs>
</svg>
