<svg width="156" height="156" fill="none" xmlns="http://www.w3.org/2000/svg"><circle cx="78" cy="78" r="78" fill="#F5F5F5"/><path d="M142 78c0 35.346-28.654 64-64 64-35.346 0-64-28.654-64-64 0-35.346 28.654-64 64-64 35.346 0 64 28.654 64 64z" stroke="#121212" stroke-width="2"/><path d="M124.192 80.473c-.105 1.515.943 2.456 2.475 2.614l-2.584.137-.051.732 3.528.245.216-3.111-.966-.067-.136 1.962c-.929-.31-1.513-.861-1.434-2.01.094-1.342 1.116-1.935 2.56-1.835 1.413.099 2.364.819 2.265 2.242-.077 1.098-.793 1.702-1.681 1.845l.642 1.045c1.263-.382 2.028-1.39 2.127-2.825.148-2.114-1.266-3.387-3.269-3.527-2.165-.15-3.57.804-3.692 2.553zm-1.732 10.783l.988.248.895-3.569 1.898.476-.741 2.956.988.248.742-2.956 1.759.441-.895 3.569.989.248 1.175-4.686-6.624-1.66-1.174 4.685zm-1.817 4.913l5.35 2.263-.818 1.934.939.397 2.08-4.919-.938-.397-.814 1.924-5.351-2.263-.448 1.06zm-4.776 8.553l5.565 3.956.668-.938-5.566-3.957-.667.939zm-2.387 3.155l2.773 2.541.972.78-1.134-.196-4.89-.638-.716.781 5.034 4.614.778-.849-2.765-2.534-1.002-.822 1.243.227 4.796.649.723-.789-5.034-4.613-.778.849zm-10.584 9.222l3.136 4.89-1.767 1.133.55.858 4.496-2.883-.551-.858-1.758 1.128-3.137-4.89-.969.622zm-6.394 3.309c-1.834.792-2.478 2.746-1.694 4.562.78 1.805 2.643 2.677 4.477 1.885 1.844-.796 2.478-2.746 1.698-4.552-.784-1.815-2.638-2.691-4.481-1.895zm.427 1.015c1.31-.566 2.38.06 2.94 1.361.558 1.291.285 2.508-1.025 3.074-1.31.565-2.374-.074-2.932-1.365-.562-1.301-.293-2.505 1.017-3.07zm-8.028 1.532c-1.815.426-2.442 1.546-1.97 3.561l.894 3.81 1.111-.261-.896-3.82c-.31-1.32-.009-1.956 1.103-2.216 1.091-.256 1.663.175 1.973 1.494l.896 3.82 1.112-.26-.894-3.81c-.473-2.015-1.553-2.735-3.329-2.318zm-8.014 1.221c-1.506.093-2.495.94-2.891 2.292l1.042.671c.15-1.03.736-1.802 1.906-1.874 1.404-.087 2.127.879 2.214 2.283.087 1.414-.512 2.452-1.916 2.539-1.17.072-1.845-.611-2.122-1.626l-.952.794c.56 1.303 1.646 2.012 3.151 1.919 2.096-.129 3.18-1.738 3.06-3.701-.122-1.964-1.397-3.427-3.492-3.297zm-6.392.079l-.343 2.956-3.26-.379.344-2.956-1.144-.133-.788 6.783 1.144.133.327-2.814 3.26.378-.327 2.815 1.144.132.787-6.782-1.144-.133zm-14.14-.836l-.308.82 2.395.899.308-.821-2.395-.898zm-7.368-6.492c-1.263-.843-2.6-.4-3.498.851l1.164-2.311-.61-.407-1.964 2.941 2.594 1.731.537-.805-1.636-1.092c.73-.652 1.499-.887 2.457-.247 1.119.747 1.126 1.928.323 3.132-.787 1.178-1.884 1.647-3.07.855-.916-.612-1.085-1.533-.768-2.375l-1.227.038c-.294 1.286.202 2.451 1.398 3.249 1.763 1.177 3.57.582 4.684-1.088 1.205-1.805 1.074-3.499-.384-4.472zm-8.414-6.771l-.702.739 2.667 2.535-1.348 1.418-2.21-2.099-.701.738 2.209 2.1-1.25 1.315-2.667-2.535-.702.739 3.502 3.328 4.704-4.95-3.502-3.328zm-3.418-4.057l-4.61 3.536-1.277-1.666-.809.62 3.251 4.237.809-.62-1.272-1.658 4.609-3.536-.701-.913zm-5.072-8.333l-6.185 2.892.488 1.043 6.185-2.892-.488-1.043zm-1.578-3.636l-3.581 1.148-1.16.457.733-.888 2.98-3.93-.324-1.009-6.503 2.084.351 1.096 3.572-1.144 1.21-.463-.813.967-2.942 3.843.326 1.02 6.503-2.084-.352-1.097zm-2.762-13.654l-5.8.314-.114-2.097-1.018.055.289 5.333 1.017-.055-.113-2.086 5.801-.314-.062-1.15zm.289-7.411c.223-1.985-1.154-3.514-3.119-3.735-1.955-.219-3.636.966-3.86 2.951-.223 1.996 1.155 3.514 3.11 3.734 1.965.22 3.645-.955 3.87-2.95zm-1.093-.133c-.159 1.418-1.233 2.036-2.641 1.878-1.398-.157-2.318-.999-2.16-2.417.16-1.418 1.243-2.024 2.64-1.868 1.409.158 2.32.989 2.161 2.407zm2.602-7.607c.529-1.788-.134-2.888-2.118-3.474l-3.753-1.11-.324 1.095 3.763 1.113c1.3.384 1.703.96 1.38 2.055-.318 1.075-.976 1.359-2.276.974l-3.762-1.112-.324 1.095 3.753 1.11c1.984.586 3.144.004 3.661-1.746zm2.899-7.604c.67-1.352.427-2.632-.548-3.649l-1.1.57c.818.644 1.195 1.536.675 2.586-.624 1.26-1.822 1.407-3.082.782-1.27-.628-1.871-1.665-1.247-2.925.52-1.05 1.449-1.296 2.466-1.031l-.214-1.22c-1.41-.164-2.565.424-3.234 1.776-.931 1.882-.077 3.624 1.686 4.496 1.763.873 3.667.496 4.598-1.385zm3.038-5.519l-2.393-1.768 1.95-2.64 2.393 1.768.684-.926-5.492-4.057-.684.926 2.279 1.684-1.95 2.64-2.279-1.684-.684.926 5.492 4.057.684-.926zm7.585-11.78l-.564-.672-1.96 1.645.564.671 1.96-1.644zm9.36-3.323c1.355-.684 1.629-2.066.981-3.463l1.439 2.15.655-.33-1.592-3.157-2.785 1.404.436.864 1.756-.885c.209.956.034 1.74-.995 2.26-1.2.605-2.233.03-2.885-1.262-.638-1.265-.505-2.45.77-3.093.982-.496 1.867-.189 2.444.502l.57-1.087c-.974-.89-2.232-1.031-3.515-.384-1.893.954-2.265 2.82-1.36 4.612.977 1.939 2.515 2.658 4.08 1.869zm9.811-3.935l-.296-.975-3.52 1.07-.569-1.872 2.916-.886-.296-.975-2.916.885-.527-1.735 3.52-1.07-.296-.975-4.623 1.404 1.985 6.534 4.622-1.405zm5.216-1.01l-.803-5.754 2.079-.29-.141-1.01-5.29.739.142 1.01 2.069-.29.803 5.754 1.14-.16zm9.967-.338l.552-6.806-1.148-.093-.552 6.806 1.148.093zm4.071.427l.775-3.68.176-1.233.41 1.075 1.94 4.533 1.037.219 1.407-6.682-1.127-.237-.773 3.67-.197 1.28-.437-1.185-1.884-4.459-1.047-.22-1.407 6.682 1.127.237zm13.392 4.408l2.615-5.187 1.875.946.459-.91-4.768-2.405-.46.91 1.866.94-2.616 5.187 1.028.519zm5.991 3.735c1.615 1.175 3.625.734 4.788-.864 1.157-1.591.958-3.639-.657-4.814-1.624-1.181-3.626-.734-4.783.857-1.163 1.599-.972 3.64.652 4.822zm.656-.884c-1.154-.839-1.16-2.078-.327-3.224.827-1.137 2.014-1.522 3.168-.682 1.154.84 1.146 2.08.318 3.218-.833 1.146-2.006 1.528-3.159.688zm5.387 6.054c1.294 1.342 2.578 1.308 4.067-.128l2.817-2.717-.792-.821-2.825 2.723c-.975.941-1.676 1.008-2.468.186-.778-.807-.7-1.52.275-2.46l2.825-2.724-.792-.821-2.818 2.716c-1.489 1.436-1.556 2.733-.289 4.046zm5.282 6.378c.847 1.249 2.08 1.669 3.445 1.321l.047-1.238c-.964.395-1.926.284-2.583-.686-.79-1.164-.327-2.279.837-3.068 1.173-.795 2.371-.808 3.161.356.657.97.413 1.9-.318 2.654l1.167.415c.836-1.146.894-2.441.047-3.69-1.178-1.737-3.115-1.851-4.743-.747-1.628 1.104-2.238 2.946-1.06 4.684zm3.21 5.164l2.714-1.22 1.345 2.992-2.714 1.22.472 1.051 6.228-2.8-.472-1.05-2.584 1.162-1.346-2.994 2.584-1.161-.472-1.05-6.228 2.8.473 1.05zm6.586 12.609l.862-.158-.46-2.516-.862.158.46 2.516zM78 52.677l-6.906 18.417L52.677 78l18.417 6.906L78 103.323l6.906-18.417L103.323 78l-18.417-6.906L78 52.677z" fill="#121212"/></svg>