<svg width="3325" height="1950" viewBox="0 0 3325 1950" fill="none" xmlns="http://www.w3.org/2000/svg">
<rect x="277" y="104" width="2972" height="1331" fill="white"/>
<g filter="url(#filter0_f_1600_2320)">
<path d="M820.823 1567.38C822.637 1565.71 824.548 1564.01 826.557 1562.29C1399.4 1511.76 1593.04 1757.94 2191.6 1805.33C2913.3 1862.47 3356.69 809.343 2766.77 1180.22C2176.84 1551.11 1988.13 1581.51 1517.66 1470.18C1150.32 1383.25 908.129 1492.37 826.557 1562.29C708.726 1572.68 574.85 1595.63 418.106 1635.44C-316.904 1822.13 470.505 1684.28 820.823 1567.38Z" fill="#516221"/>
</g>
<g filter="url(#filter1_f_1600_2320)">
<path d="M1698.48 1414.31C1343.16 1316.57 1112.7 1441.22 1041.88 1515.75C712.107 1640.06 225.607 1839.26 917.785 1641.57C1783.01 1394.45 1910.09 1767.99 2590.85 1832.95C3271.62 1897.91 3429.44 710.95 2874.93 1107.77C2320.42 1504.6 2142.62 1536.47 1698.48 1414.31Z" fill="#B1C72E"/>
</g>
<g filter="url(#filter2_f_1600_2320)">
<path d="M1551.07 1365.52C1165.06 1282.31 913.487 1392.55 835.951 1458.06C476.321 1568.6 -54.3268 1745.48 700.116 1568.68C1643.17 1347.67 1779.07 1673.1 2519.42 1725.72C3259.76 1778.34 3318.36 741.339 2712.45 1091.21C2106.54 1441.08 2033.57 1469.52 1551.07 1365.52Z" fill="#E5F9BA"/>
</g>
<g filter="url(#filter3_f_1600_2320)">
<path d="M1530.46 1276.22C1144.03 1179.56 893.013 1304.04 815.808 1378.37C456.733 1502.69 -73.0261 1701.84 680.532 1503.83C1622.48 1256.31 1760.03 1627.94 2500.66 1691.41C3241.29 1754.88 3355.93 534.695 2751.79 930.696C2147.64 1326.7 2013.51 1397.06 1530.46 1276.22Z" fill="white"/>
</g>
<defs>
<filter id="filter0_f_1600_2320" x="0.739258" y="986.895" width="3153.69" height="934.684" filterUnits="userSpaceOnUse" color-interpolation-filters="sRGB">
<feFlood flood-opacity="0" result="BackgroundImageFix"/>
<feBlend mode="normal" in="SourceGraphic" in2="BackgroundImageFix" result="shape"/>
<feGaussianBlur stdDeviation="57" result="effect1_foregroundBlur_1600_2320"/>
</filter>
<filter id="filter1_f_1600_2320" x="451.899" y="912.403" width="2872.91" height="1037.12" filterUnits="userSpaceOnUse" color-interpolation-filters="sRGB">
<feFlood flood-opacity="0" result="BackgroundImageFix"/>
<feBlend mode="normal" in="SourceGraphic" in2="BackgroundImageFix" result="shape"/>
<feGaussianBlur stdDeviation="57" result="effect1_foregroundBlur_1600_2320"/>
</filter>
<filter id="filter2_f_1600_2320" x="252.707" y="954.942" width="2936.48" height="836.716" filterUnits="userSpaceOnUse" color-interpolation-filters="sRGB">
<feFlood flood-opacity="0" result="BackgroundImageFix"/>
<feBlend mode="normal" in="SourceGraphic" in2="BackgroundImageFix" result="shape"/>
<feGaussianBlur stdDeviation="32" result="effect1_foregroundBlur_1600_2320"/>
</filter>
<filter id="filter3_f_1600_2320" x="263.482" y="817.45" width="2910.33" height="910.355" filterUnits="userSpaceOnUse" color-interpolation-filters="sRGB">
<feFlood flood-opacity="0" result="BackgroundImageFix"/>
<feBlend mode="normal" in="SourceGraphic" in2="BackgroundImageFix" result="shape"/>
<feGaussianBlur stdDeviation="17" result="effect1_foregroundBlur_1600_2320"/>
</filter>
</defs>
</svg>
