<svg width="208" height="16" fill="none" xmlns="http://www.w3.org/2000/svg"><path d="M17.645 7.55c0 3.29-1.983 4.484-6.535 4.484s-6.535-1.195-6.535-4.485V.315H0v8.203c0 5.251 4.327 7.414 11.11 7.414 6.783 0 11.11-2.163 11.11-7.414V.315h-4.575V7.55zm10.912 8.134V5.115l13.318 10.57h5.116V.315h-4.575v10.39L29.211.314h-5.229v15.37h4.575zm24.99 0V.316h-4.575v15.37h4.575zM55.001.315l9.555 7.73-9.578 7.64h6.806l6.423-5.206 6.31 5.206h6.94l-9.554-7.708L81.367.315h-6.603L68.297 5.59 61.874.315h-6.873zm48.111 10.998c0-3.178-1.983-4.71-6.4-4.958l-8.383-.496c-1.397-.09-1.983-.225-1.983-1.082 0-.923.608-1.149 4.754-1.149 3.854 0 7.91.428 10.524.947l.744-3.448C99.326.473 94.886.045 92.16.045c-7.121 0-10.141 1.397-10.141 4.845 0 2.862 1.735 4.395 6.512 4.62l8.496.496c1.195.112 1.758.225 1.758 1.171 0 .924-.653 1.217-4.26 1.217-4.619 0-8.45-.608-11.605-1.307l-.653 3.674c2.772.676 7.211 1.216 11.042 1.216 7.594 0 9.803-1.42 9.803-4.664zm9.317-7.076v11.447h4.575V4.238h9.104V.315h-22.806v3.922h9.127zM144.76 7.55c0 3.29-1.983 4.484-6.535 4.484s-6.535-1.195-6.535-4.485V.315h-4.575v8.203c0 5.251 4.327 7.414 11.11 7.414 6.783 0 11.11-2.163 11.11-7.414V.315h-4.575V7.55zm21.301 8.134c5.251 0 8.811-1.69 8.811-7.707 0-5.836-3.515-7.662-8.811-7.662h-14.963v15.37h14.963zM155.672 4.238h9.961c3.177 0 4.507.743 4.507 3.74 0 3.043-1.33 3.786-4.507 3.786h-9.961V4.237zm25.298 11.446V.316h-4.575v15.37h4.575zm14.142.316c8.811 0 12.62-2.501 12.62-8 0-5.499-3.809-8-12.62-8s-12.62 2.501-12.62 8c0 5.499 3.809 8 12.62 8zm0-3.921c-6.175 0-8.045-1.104-8.045-4.079 0-2.975 1.87-4.079 8.045-4.079 6.152 0 7.955 1.104 7.955 4.079 0 2.975-1.803 4.079-7.955 4.079z" fill="#fff"/></svg>